<svg width="100%" height="100%" viewBox="0 0 1200 800" xmlns="http://www.w3.org/2000/svg">
  <defs>
    <filter id="glow" x="-50%" y="-50%" width="200%" height="200%">
      <feGaussianBlur stdDeviation="5" result="blur" />
      <feColorMatrix in="blur" type="matrix" values="
        1 0 0 0 0.5
        0 1 0 0 0.1
        0 0 1 0 0.9
        0 0 0 15 -2" result="glow" />
      <feComposite in="SourceGraphic" in2="glow" operator="over" />
    </filter>
    
    <linearGradient id="purpleGlow" x1="0%" y1="0%" x2="100%" y2="100%">
      <stop offset="0%" stop-color="#9c27b0" stop-opacity="0.5" />
      <stop offset="100%" stop-color="#6a1b9a" stop-opacity="0.5" />
    </linearGradient>
  </defs>
  
  <!-- Полупрозрачный тёмный фон -->
  <rect width="100%" height="100%" fill="rgba(10, 10, 10, 0.7)" />
  
  <!-- Абстрактные линии с неоновым эффектом -->
  <g filter="url(#glow)" opacity="0.2">
    <path d="M0,400 Q300,350 600,450 T1200,400" stroke="#8e24aa" stroke-width="2" fill="none" />
    <path d="M0,200 Q300,250 600,150 T1200,200" stroke="#8e24aa" stroke-width="1.5" fill="none" />
    <path d="M0,600 Q300,550 600,650 T1200,600" stroke="#8e24aa" stroke-width="1.5" fill="none" />
  </g>
  
  <!-- Декоративные точки -->
  <g filter="url(#glow)">
    <circle cx="200" cy="200" r="2" fill="#9c27b0" opacity="0.4" />
    <circle cx="400" cy="300" r="1.5" fill="#9c27b0" opacity="0.3" />
    <circle cx="600" cy="150" r="2.5" fill="#9c27b0" opacity="0.5" />
    <circle cx="800" cy="250" r="1" fill="#9c27b0" opacity="0.2" />
    <circle cx="1000" cy="350" r="2" fill="#9c27b0" opacity="0.4" />
    <circle cx="300" cy="450" r="1.5" fill="#9c27b0" opacity="0.3" />
    <circle cx="500" cy="550" r="2" fill="#9c27b0" opacity="0.4" />
    <circle cx="700" cy="650" r="1" fill="#9c27b0" opacity="0.2" />
    <circle cx="900" cy="500" r="1.5" fill="#9c27b0" opacity="0.3" />
    <circle cx="1100" cy="600" r="2.5" fill="#9c27b0" opacity="0.5" />
  </g>
  
  <!-- Полупрозрачные диагональные полосы -->
  <g opacity="0.05">
    <rect x="-400" y="600" width="2000" height="100" transform="rotate(-30)" fill="url(#purpleGlow)" />
    <rect x="-400" y="300" width="2000" height="50" transform="rotate(-30)" fill="url(#purpleGlow)" />
    <rect x="-400" y="0" width="2000" height="70" transform="rotate(-30)" fill="url(#purpleGlow)" />
    <rect x="-400" y="-300" width="2000" height="30" transform="rotate(-30)" fill="url(#purpleGlow)" />
  </g>
  
  <!-- Нижняя виньетка -->
  <radialGradient id="vignette" cx="50%" cy="50%" r="80%" fx="50%" fy="50%">
    <stop offset="0%" stop-color="transparent" />
    <stop offset="100%" stop-color="rgba(10, 10, 10, 0.7)" />
  </radialGradient>
  <rect width="100%" height="100%" fill="url(#vignette)" />
</svg>

